<svg xmlns="http://www.w3.org/2000/svg" viewBox="0 0 639.4 292.5"><style>.a{fill:#73c3c3;}.b{fill:#006f9d;}.c{fill:#0088ad;}</style><path d="M165.8 159.7v34.6c0 6.1-4.9 11.1-11.1 11.1-6.1 0-11-4.9-11-11.1v-34.6l0 1.4c0-9.1-7.4-16.6-16.6-16.6s-16.6 7.4-16.6 16.6l0 4.2v29c0 6.1-4.9 11.1-11.1 11.1-6.1 0-11.1-4.9-11.1-11.1v-29l0-4.2c0-21.4 17.3-38.7 38.7-38.7 21.4 0 38.7 17.3 38.7 38.7l0-1.3zM0 168V107.4c0-6.1 5-11.1 11.1-11.1 6.1 0 11.1 5 11.1 11.1v60.6l0-1.4c0 9.1 7.4 16.6 16.6 16.6 9.1 0 16.6-7.4 16.6-16.6l0-4.2V107.4c0-6.1 5-11.1 11.1-11.1 6.1 0 11.1 5 11.1 11.1v55l0 4.2c0 21.4-17.3 38.7-38.7 38.7-21.4 0-38.7-17.3-38.7-38.7L0 168zm199.3 26.3c0 6.1-4.9 11.1-11.1 11.1s-11.1-4.9-11.1-11.1v-60.7c0-6.1 5-11.1 11.1-11.1 6.1 0 11.1 5 11.1 11.1v60.7zm0.3-88.1c0 6.3-5.1 11.4-11.4 11.4s-11.4-5.1-11.4-11.4c0-6.3 5.1-11.4 11.4-11.4s11.4 5.1 11.4 11.4z" class="a"/><path d="M293 135C293 113.7 275.7 96.4 254.3 96.4L250.1 96.3 222.5 96.3C216.4 96.3 211.4 101.3 211.4 107.4L211.4 194.2C211.4 200.3 216.4 205.3 222.5 205.3 228.6 205.3 233.5 200.3 233.5 194.2L233.5 118.5 250.1 118.5 254.3 118.5C263.5 118.5 270.9 125.9 270.9 135 270.9 144.2 263.5 151.6 254.3 151.6L255.7 151.6 251.5 151.6C245.4 151.6 240.5 156.6 240.5 162.7 240.5 168.8 245.4 173.7 251.5 173.7L255.7 173.7 254.3 173.7C275.7 173.7 293 156.4 293 135z" class="b"/><path d="M334.4 144.5C325.2 144.5 317.8 151.9 317.8 161L317.8 165.2 317.8 194.2C317.8 200.3 312.8 205.3 306.7 205.3 300.6 205.3 295.7 200.3 295.7 194.2L295.7 165.2 295.7 161C295.7 139.7 313 122.4 334.4 122.4L341.3 122.4C347.4 122.4 352.3 127.3 352.3 133.4 352.3 139.5 347.4 144.5 341.3 144.5L334.4 144.5z" class="b"/><path d="M483.7 183.2L479.5 183.2C470.3 183.2 462.9 175.7 462.9 166.6L462.9 162.4 462.9 144.5 482.2 144.5C488.3 144.5 493.3 139.5 493.3 133.4 493.3 127.3 488.3 122.3 482.2 122.3L462.9 122.3 462.9 116.8C462.9 110.7 457.9 105.8 451.8 105.8 445.7 105.8 440.8 110.7 440.8 116.8L440.8 162.4 440.8 166.6C440.8 188 458.1 205.3 479.5 205.3L483.7 205.3C489.8 205.3 494.8 200.3 494.8 194.2 494.8 188.1 489.8 183.2 483.7 183.2z" class="b"/><circle cx="423" cy="54.7" r="7.3" class="b"/><circle cx="453.2" cy="26.3" r="9.2" fill="#0078a3"/><circle cx="493.9" cy="11.7" r="11.7" class="c"/><circle cx="540.5" cy="16.3" r="14.5" class="c"/><circle cx="583.9" cy="42.1" r="18.1" fill="#0092b2"/><circle cx="614.4" cy="90.3" r="20.9" fill="#009bb5"/><circle cx="615" cy="153.2" r="24.5" fill="#25a5b8"/><circle cx="585" cy="215.8" r="28.2" fill="#46afbc"/><circle cx="520.2" cy="258.9" r="31" fill="#60bac0"/><circle cx="437" cy="257.5" r="36" class="a"/><circle cx="391" cy="163.9" r="32.3" fill="none" stroke-width="20.9" stroke="#006f9d"/></svg>